<?xml version="1.0" encoding="UTF-8"?>
<svg xmlns="http://www.w3.org/2000/svg" width="512" height="512" viewBox="0 0 512 512" role="img" aria-label="Laptop with Voca mark on screen and MDM lock badge at bottom right">
  <!--
    v7  lock BR · teal screen · ink chrome
    Shared chassis A. Lock 116×90 t18 filled U. Mic 0.56, slight left.
  -->
  <rect width="512" height="512" fill="#F4F1E8"/>
  <path d="M 84 84 H 376 A 32 32 0 0 1 408 116 V 340 H 52 V 116 A 32 32 0 0 1 84 84 Z" fill="#14231C"/>
  <path d="M 32 328 H 428 V 356 A 12 12 0 0 1 416 368 H 44 A 12 12 0 0 1 32 356 Z" fill="#14231C"/>
  <rect x="74" y="106" width="312" height="212" rx="10" fill="#0F6B57"/>
  <g transform="translate(96.04 83.16) scale(0.56)">
    <path d="M 164 127 A 65 65 0 0 1 294 127 L 294 224 A 65 65 0 0 1 164 224 Z" fill="#F2F6F2"/>
    <path d="M 144.87 202.02 A 87 87 0 1 0 312.13 202.02" fill="none" stroke="#F2F6F2" stroke-width="18" stroke-linecap="round"/>
    <path d="M 228.5 313 L 228.5 382" fill="none" stroke="#F2F6F2" stroke-width="18" stroke-linecap="round"/>
    <path d="M 170 382 L 287 382" fill="none" stroke="#F2F6F2" stroke-width="18" stroke-linecap="round"/>
    <path d="M 123.12 168.78 A 129.0 99.2 0 0 0 123.12 283.22" fill="none" stroke="#F2F6F2" stroke-width="18" stroke-linecap="round"/>
    <path d="M 333.88 168.78 A 129.0 99.2 0 0 1 333.88 283.22" fill="none" stroke="#F2F6F2" stroke-width="18" stroke-linecap="round"/>
  </g>
  <g>
    <path fill="#0F6B57" fill-rule="evenodd" d="M 362,320 L 362,288 A 42 42 0 0 1 446,288 L 446,320 L 428,320 L 428,288 A 24 24 0 0 0 380,288 L 380,320 Z"/>
    <rect x="346" y="304" width="116" height="90" rx="20" fill="#0F6B57"/>
    <circle cx="404" cy="342" r="13" fill="#F2F6F2"/>
  </g>
</svg>
