<svg xmlns="http://www.w3.org/2000/svg" viewBox="0 0 1024 1024" width="1024" height="1024" role="img" aria-label="VocaBot study 03 companion glyph">
  <rect width="1024" height="1024" fill="#0F6B57"/>
  <g transform="translate(28.386 32.619) scale(2.116474)">
    <path d="M 164 127 A 65 65 0 0 1 294 127 L 294 224 A 65 65 0 0 1 164 224 Z" fill="#F2F6F2"/>
    <path d="M 144.87 202.02 A 87 87 0 1 0 312.13 202.02" fill="none" stroke="#F2F6F2" stroke-width="18" stroke-linecap="round"/>
    <path d="M 228.5 313 L 228.5 382" fill="none" stroke="#F2F6F2" stroke-width="18" stroke-linecap="round"/>
    <path d="M 170 382 L 287 382" fill="none" stroke="#F2F6F2" stroke-width="18" stroke-linecap="round"/>
    <path d="M 123.12 168.78 A 129.0 99.2 0 0 0 123.12 283.22" fill="none" stroke="#F2F6F2" stroke-width="18" stroke-linecap="round"/>
    <path d="M 333.88 168.78 A 129.0 99.2 0 0 1 333.88 283.22" fill="none" stroke="#F2F6F2" stroke-width="18" stroke-linecap="round"/>
  </g>
  <!-- Companion robot glyph in LR clear space, mark color on teal (distinct from study-01 paper badge) -->
  <rect x="720" y="740" width="120" height="100" rx="24" ry="24" fill="#F2F6F2"/>
  <line x1="780" y1="740" x2="780" y2="700" stroke="#F2F6F2" stroke-width="16" stroke-linecap="round"/>
  <circle cx="780" cy="686" r="14" fill="#F2F6F2"/>
  <circle cx="752" cy="784" r="12" fill="#0F6B57"/>
  <circle cx="808" cy="784" r="12" fill="#0F6B57"/>
</svg>
